<?xml version="1.0" encoding="UTF-8" standalone="no"?>
<!DOCTYPE svg PUBLIC "-//W3C//DTD SVG 1.1//EN" "http://www.w3.org/Graphics/SVG/1.1/DTD/svg11.dtd">
<!-- Generated by Microsoft Visio, SVG Export OAC0000206.svg Page-1 -->
<svg xmlns="http://www.w3.org/2000/svg" xmlns:xlink="http://www.w3.org/1999/xlink" xmlns:ev="http://www.w3.org/2001/xml-events"
		xmlns:v="http://schemas.microsoft.com/visio/2003/SVGExtensions/" width="6.2477in" height="20.9849in"
		viewBox="0 0 449.834 1510.91" xml:space="preserve" color-interpolation-filters="sRGB" class="st2">
	<v:documentProperties v:langID="1043" v:metric="true" v:viewMarkup="false"/>

	<style type="text/css">
	<![CDATA[
		.st1 {fill:none;stroke:none;stroke-linecap:butt;stroke-width:1.04211}
		.st2 {fill:none;fill-rule:evenodd;font-size:12px;overflow:visible;stroke-linecap:square;stroke-miterlimit:3}
	]]>
	</style>

	<g v:mID="0" v:index="1" v:groupContext="foregroundPage">
		<title>Page-1</title>
		<v:pageProperties v:drawingScale="1" v:pageScale="1" v:drawingUnits="19" v:shadowOffsetX="9" v:shadowOffsetY="-9"/>
		<g id="shape2-1" v:mID="2" v:groupContext="shape" transform="translate(1.04211,-1365.87)">
			<title>60220SI217</title>
			<rect x="0" y="1366.91" width="144" height="144" class="st1"/>
		</g>
		<g id="shape3-3" v:mID="3" v:groupContext="shape" transform="translate(151.792,-1365.67)">
			<title>60220SI209</title>
			<rect x="0" y="1366.91" width="144" height="144" class="st1"/>
		</g>
		<g id="shape4-5" v:mID="4" v:groupContext="shape" transform="translate(304.792,-1365.67)">
			<title>60220SI201</title>
			<rect x="0" y="1366.91" width="144" height="144" class="st1"/>
		</g>
		<g id="shape5-7" v:mID="5" v:groupContext="shape" transform="translate(1.04211,-1214.92)">
			<title>60220SI218</title>
			<rect x="0" y="1366.91" width="144" height="144" class="st1"/>
		</g>
		<g id="shape6-9" v:mID="6" v:groupContext="shape" transform="translate(151.792,-1214.92)">
			<title>60220SI210</title>
			<rect x="0" y="1366.91" width="144" height="144" class="st1"/>
		</g>
		<g id="shape7-11" v:mID="7" v:groupContext="shape" transform="translate(304.792,-1214.92)">
			<title>60220SI202</title>
			<rect x="0" y="1366.91" width="144" height="144" class="st1"/>
		</g>
		<g id="shape8-13" v:mID="8" v:groupContext="shape" transform="translate(1.04211,-1061.92)">
			<title>60220SI219</title>
			<rect x="0" y="1366.91" width="144" height="144" class="st1"/>
		</g>
		<g id="shape9-15" v:mID="9" v:groupContext="shape" transform="translate(151.792,-1061.92)">
			<title>60220SI211</title>
			<rect x="0" y="1366.91" width="144" height="144" class="st1"/>
		</g>
		<g id="shape10-17" v:mID="10" v:groupContext="shape" transform="translate(304.792,-1061.92)">
			<title>60220SI203</title>
			<rect x="0" y="1366.91" width="144" height="144" class="st1"/>
		</g>
		<g id="shape11-19" v:mID="11" v:groupContext="shape" transform="translate(1.04211,-908.917)">
			<title>60220SI220</title>
			<rect x="0" y="1366.91" width="144" height="144" class="st1"/>
		</g>
		<g id="shape12-21" v:mID="12" v:groupContext="shape" transform="translate(151.792,-908.917)">
			<title>60220SI212</title>
			<rect x="0" y="1366.91" width="144" height="144" class="st1"/>
		</g>
		<g id="shape13-23" v:mID="13" v:groupContext="shape" transform="translate(304.792,-908.917)">
			<title>60220SI204</title>
			<rect x="0" y="1366.91" width="144" height="144" class="st1"/>
		</g>
		<g id="shape14-25" v:mID="14" v:groupContext="shape" transform="translate(1.04211,-760.417)">
			<title>60220SI221</title>
			<rect x="0" y="1366.91" width="144" height="144" class="st1"/>
		</g>
		<g id="shape15-27" v:mID="15" v:groupContext="shape" transform="translate(151.792,-760.417)">
			<title>60220SI213</title>
			<rect x="0" y="1366.91" width="144" height="144" class="st1"/>
		</g>
		<g id="shape16-29" v:mID="16" v:groupContext="shape" transform="translate(304.792,-760.417)">
			<title>60220SI205</title>
			<rect x="0" y="1366.91" width="144" height="144" class="st1"/>
		</g>
		<g id="shape17-31" v:mID="17" v:groupContext="shape" transform="translate(1.04211,-607.417)">
			<title>60220SI222</title>
			<rect x="0" y="1366.91" width="144" height="144" class="st1"/>
		</g>
		<g id="shape18-33" v:mID="18" v:groupContext="shape" transform="translate(151.792,-607.417)">
			<title>60220SI214</title>
			<rect x="0" y="1366.91" width="144" height="144" class="st1"/>
		</g>
		<g id="shape19-35" v:mID="19" v:groupContext="shape" transform="translate(304.792,-607.417)">
			<title>60220SI206</title>
			<rect x="0" y="1366.91" width="144" height="144" class="st1"/>
		</g>
		<g id="shape20-37" v:mID="20" v:groupContext="shape" transform="translate(1.04211,-454.417)">
			<title>60220SI223</title>
			<rect x="0" y="1366.91" width="144" height="144" class="st1"/>
		</g>
		<g id="shape21-39" v:mID="21" v:groupContext="shape" transform="translate(151.792,-454.417)">
			<title>60220SI215</title>
			<rect x="0" y="1366.91" width="144" height="144" class="st1"/>
		</g>
		<g id="shape22-41" v:mID="22" v:groupContext="shape" transform="translate(304.792,-454.417)">
			<title>60220SI207</title>
			<rect x="0" y="1366.91" width="144" height="144" class="st1"/>
		</g>
		<g id="shape23-43" v:mID="23" v:groupContext="shape" transform="translate(1.04211,-303.667)">
			<title>60220SI224</title>
			<rect x="0" y="1366.91" width="144" height="144" class="st1"/>
		</g>
		<g id="shape24-45" v:mID="24" v:groupContext="shape" transform="translate(75.2921,-151.792)">
			<title>60220SI227</title>
			<rect x="0" y="1366.91" width="144" height="144" class="st1"/>
		</g>
		<g id="shape25-47" v:mID="25" v:groupContext="shape" transform="translate(228.292,-151.792)">
			<title>60220SI225</title>
			<rect x="0" y="1366.91" width="144" height="144" class="st1"/>
		</g>
		<g id="shape26-49" v:mID="26" v:groupContext="shape" transform="translate(304.792,-303.667)">
			<title>60220SI208</title>
			<rect x="0" y="1366.91" width="144" height="144" class="st1"/>
		</g>
		<g id="shape27-51" v:mID="27" v:groupContext="shape" transform="translate(75.2921,-1.04211)">
			<title>60220SI228</title>
			<rect x="0" y="1366.91" width="144" height="144" class="st1"/>
		</g>
		<g id="shape28-53" v:mID="28" v:groupContext="shape" transform="translate(228.292,-1.04211)">
			<title>60220SI226</title>
			<rect x="0" y="1366.91" width="144" height="144" class="st1"/>
		</g>
		<g id="shape29-55" v:mID="29" v:groupContext="shape" transform="translate(151.792,-303.667)">
			<title>60220SI216</title>
			<rect x="0" y="1366.91" width="144" height="144" class="st1"/>
		</g>
	</g>
</svg>
